<?xml version="1.0" encoding="utf-8"?>
<!-- Generator: Adobe Illustrator 16.0.0, SVG Export Plug-In . SVG Version: 6.00 Build 0)  -->
<!DOCTYPE svg PUBLIC "-//W3C//DTD SVG 1.1//EN" "http://www.w3.org/Graphics/SVG/1.1/DTD/svg11.dtd">
<svg version="1.1" id="Laag_1" xmlns="http://www.w3.org/2000/svg" xmlns:xlink="http://www.w3.org/1999/xlink" x="0px" y="0px"
	 width="108.098px" height="66.25px" viewBox="0 0 108.098 66.25" enable-background="new 0 0 108.098 66.25" xml:space="preserve">
<path fill-rule="evenodd" clip-rule="evenodd" fill="#2D2D2C" d="M95.76,61.79c-1.352-0.515-16.224-5.014-21.202-9.215
	c0,0,44.199-20.008,31.121-41.946c0,0-7.676-13.955-36.954-9.885c0,0-11.793,1.686-23.026,6.107c0,0-23.596,8.375-34.4,21.168
	c1.705-5.969,6.526-9.762,12.781-14.311c9.733-7.079,2.656-7.375-5.117-1.421c0,0-6.242,3.509-12.781,12.299
	c0,0-18.115,23.467,7.675,33.726c5.116,2.034,30.136,8.93,54.014-1.864c11.726,5.998,21.99,8.587,21.99,8.587
	C104.316,67.985,111.395,65.035,95.76,61.79z M21.249,52.509C44.701,56.434,56.5,50.183,56.5,50.183
	c2.45,1.637,3.34,2.049,4.833,2.617C40.578,59.196,28.213,55.854,21.249,52.509z M58.33,44.766
	c-4.58-2.399-10.074-10.163-0.508-12.459C70.751,29.205,65.937,41.511,58.33,44.766z M64.175,46.113
	c1.81-0.909,9.667-7.006,6.255-15.819c-3.128-6.823-23.312-4.264-23.597,6.254c0,0-0.551,4.818,4.549,9.565
	c-12.171,4.811-29.292-0.232-29.292-0.232c-2.08-0.78-8.107-4.311-8.314-8.941C13.29,26.03,50.528,9.19,70.714,6.571
	c6.882-0.891,19.903-0.715,24.164,6.688c10.569,18.374-21.549,33.756-25.301,35.762C66.73,47.746,65.576,47.445,64.175,46.113z"/>
</svg>
